<?xml version="1.0" standalone="no"?>
<!DOCTYPE svg PUBLIC "-//W3C//DTD SVG 20010904//EN"
 "http://www.w3.org/TR/2001/REC-SVG-20010904/DTD/svg10.dtd">
<svg version="1.0" xmlns="http://www.w3.org/2000/svg"
 width="368.000000pt" height="382.000000pt" viewBox="0 0 368.000000 382.000000"
 preserveAspectRatio="xMidYMid meet">

<g transform="translate(0.000000,382.000000) scale(0.100000,-0.100000)"
fill="#ffffff" stroke="none">
<path d="M1620 3759 c-410 -47 -802 -243 -1092 -547 -147 -155 -237 -285 -324
-467 -268 -565 -220 -1215 128 -1741 l62 -94 272 0 c153 0 275 4 278 9 4 5
-38 53 -92 108 -117 116 -198 236 -258 376 -163 386 -149 830 37 1186 163 312
434 542 769 654 142 48 249 67 410 74 348 15 671 -106 950 -355 177 -159 317
-382 383 -612 84 -290 73 -624 -28 -879 l-35 -86 123 -117 c141 -135 162 -144
214 -84 168 190 254 678 188 1071 -133 800 -779 1417 -1577 1504 -111 13 -298
12 -408 0z"/>
<path d="M1625 3081 c-119 -25 -172 -43 -284 -98 -270 -133 -475 -370 -570
-660 -74 -227 -72 -506 6 -732 104 -306 340 -547 636 -650 l89 -31 626 0 627
0 -100 -100 -100 -100 -964 -2 c-898 -3 -965 -4 -975 -20 -13 -22 20 -59 119
-133 100 -74 169 -111 255 -134 71 -20 100 -21 670 -21 l594 0 -71 -73 c-83
-85 -93 -101 -93 -159 0 -79 69 -148 147 -148 15 0 45 10 65 23 55 33 858 837
865 865 3 14 2 36 -3 49 -5 14 -166 182 -358 374 -390 389 -401 398 -476 364
-68 -31 -98 -107 -70 -179 5 -15 66 -84 135 -155 69 -70 125 -131 125 -135 0
-4 -190 -6 -422 -3 -468 4 -462 4 -611 77 -175 86 -318 266 -373 470 -25 90
-25 300 -1 388 90 325 355 544 677 560 331 16 615 -163 747 -468 40 -93 67
-242 59 -327 l-5 -63 140 -137 c77 -76 149 -139 158 -141 14 -2 22 10 35 57
114 408 10 824 -282 1118 -144 145 -339 257 -540 310 -134 35 -347 41 -477 14z"/>
</g>
</svg>
